<mxfile host="app.diagrams.net" modified="2021-09-18T06:56:48.507Z" agent="5.0 (Macintosh; Intel Mac OS X 11_0_0) AppleWebKit/537.36 (KHTML, like Gecko) Chrome/86.0.4240.277 Whale/2.9.118.38 Safari/537.36" etag="cb8zoojhVZ8YNZU0LQjF" version="15.2.9" type="github">
  <diagram id="Gag8Pz1Tdca4HvJkI-cT" name="Page-1">
    <mxGraphModel dx="1248" dy="830" grid="1" gridSize="10" guides="1" tooltips="1" connect="1" arrows="1" fold="1" page="1" pageScale="1" pageWidth="827" pageHeight="1169" math="0" shadow="0">
      <root>
        <mxCell id="0" />
        <mxCell id="1" parent="0" />
        <mxCell id="fQm5tjJO3iZtvAacNA-u-9" style="edgeStyle=orthogonalEdgeStyle;rounded=0;orthogonalLoop=1;jettySize=auto;html=1;exitX=0.5;exitY=1;exitDx=0;exitDy=0;" edge="1" parent="1">
          <mxGeometry relative="1" as="geometry">
            <mxPoint x="217" y="550" as="targetPoint" />
            <mxPoint x="217" y="390" as="sourcePoint" />
            <Array as="points">
              <mxPoint x="217" y="540" />
            </Array>
          </mxGeometry>
        </mxCell>
        <mxCell id="fQm5tjJO3iZtvAacNA-u-1" value="Spring Cloud GW" style="rounded=1;whiteSpace=wrap;html=1;" vertex="1" parent="1">
          <mxGeometry x="160" y="330" width="120" height="60" as="geometry" />
        </mxCell>
        <mxCell id="fQm5tjJO3iZtvAacNA-u-3" value="Instances" style="rounded=1;whiteSpace=wrap;html=1;" vertex="1" parent="1">
          <mxGeometry x="420" y="330" width="120" height="60" as="geometry" />
        </mxCell>
        <mxCell id="fQm5tjJO3iZtvAacNA-u-4" value="" style="endArrow=classic;startArrow=classic;html=1;exitX=1;exitY=0.5;exitDx=0;exitDy=0;entryX=0;entryY=0.5;entryDx=0;entryDy=0;" edge="1" parent="1" source="fQm5tjJO3iZtvAacNA-u-1" target="fQm5tjJO3iZtvAacNA-u-3">
          <mxGeometry width="50" height="50" relative="1" as="geometry">
            <mxPoint x="390" y="450" as="sourcePoint" />
            <mxPoint x="440" y="400" as="targetPoint" />
          </mxGeometry>
        </mxCell>
        <mxCell id="fQm5tjJO3iZtvAacNA-u-11" value="&lt;h1&gt;API Response Data Set&lt;/h1&gt;&lt;p&gt;Response time, Server instace data, API path... etc&lt;/p&gt;" style="text;html=1;strokeColor=none;fillColor=none;spacing=5;spacingTop=-20;whiteSpace=wrap;overflow=hidden;rounded=0;" vertex="1" parent="1">
          <mxGeometry x="230" y="450" width="300" height="70" as="geometry" />
        </mxCell>
        <mxCell id="fQm5tjJO3iZtvAacNA-u-14" style="edgeStyle=orthogonalEdgeStyle;rounded=0;orthogonalLoop=1;jettySize=auto;html=1;exitX=0;exitY=0.5;exitDx=0;exitDy=0;entryX=0;entryY=0.5;entryDx=0;entryDy=0;" edge="1" parent="1" source="fQm5tjJO3iZtvAacNA-u-13" target="fQm5tjJO3iZtvAacNA-u-1">
          <mxGeometry relative="1" as="geometry">
            <Array as="points">
              <mxPoint x="80" y="585" />
              <mxPoint x="80" y="360" />
            </Array>
          </mxGeometry>
        </mxCell>
        <mxCell id="fQm5tjJO3iZtvAacNA-u-13" value="AI Online Learning" style="shape=process;whiteSpace=wrap;html=1;backgroundOutline=1;rounded=0;" vertex="1" parent="1">
          <mxGeometry x="160" y="555" width="120" height="60" as="geometry" />
        </mxCell>
        <mxCell id="fQm5tjJO3iZtvAacNA-u-15" value="Training Result" style="text;html=1;strokeColor=none;fillColor=none;align=center;verticalAlign=middle;whiteSpace=wrap;rounded=0;" vertex="1" parent="1">
          <mxGeometry x="80" y="450" width="70" height="40" as="geometry" />
        </mxCell>
        <mxCell id="fQm5tjJO3iZtvAacNA-u-16" value="Training Result based Loadbalancing" style="text;html=1;strokeColor=none;fillColor=none;align=center;verticalAlign=middle;whiteSpace=wrap;rounded=0;" vertex="1" parent="1">
          <mxGeometry x="283.5" y="300" width="130" height="50" as="geometry" />
        </mxCell>
      </root>
    </mxGraphModel>
  </diagram>
</mxfile>
